<svg version="1.2" xmlns="http://www.w3.org/2000/svg" viewBox="0 0 19 16" width="19" height="16"><style>.a{fill:#1c1c1c}</style><g style="opacity:.8"><path class="a" d="m16.6 4.6q0 0.3 0 0.5c0 5.1-3.8 10.9-10.8 10.9-2.1 0-4.1-0.6-5.8-1.7q0.5 0.1 0.9 0.1c1.8 0 3.4-0.6 4.7-1.7-1.6 0-3-1.1-3.5-2.6q0.3 0 0.7 0 0.5 0 1-0.1c-1.7-0.4-3.1-1.9-3.1-3.8q0 0 0 0 0.8 0.4 1.8 0.4c-1-0.6-1.7-1.8-1.7-3.2 0-0.7 0.2-1.3 0.5-1.9 1.9 2.3 4.7 3.9 7.8 4q-0.1-0.4-0.1-0.8c0-2.2 1.7-3.9 3.8-3.9 1.1 0 2.1 0.5 2.8 1.2q1.3-0.2 2.4-0.9c-0.3 0.9-0.9 1.6-1.7 2.1q1.2-0.1 2.2-0.6-0.8 1.2-1.9 2z"/></g></svg>