<svg version="1.2" xmlns="http://www.w3.org/2000/svg" viewBox="0 0 66 66" width="66" height="66">
	<title>icon</title>
	<style>
		.s0 { fill: #3172b9 } 
	</style>
	<path id="icon" class="s0" d="m64.1 52.5c2.5 2.5 2.5 6.5 0 9l-2.6 2.6c-1.2 1.2-2.8 1.9-4.5 1.9-1.7 0-3.3-0.7-4.5-1.9l-20.5-20.5-2.9 2.9q0 0.2 0 0.5c0 1.7-0.6 3.3-1.8 4.5l-2.7 2.7c-1.3 1.2-2.9 1.9-4.6 1.9-1.7 0-3.3-0.7-4.5-1.9l-12.6-12.6c-2.5-2.5-2.5-6.6 0-9.1l2.7-2.7c1.2-1.2 2.8-1.9 4.5-1.9q0.3 0 0.5 0.1l17.4-17.4c-0.2-1.8 0.4-3.6 1.8-5l2.7-2.7c1.2-1.2 2.9-1.9 4.6-1.9 1.7 0 3.3 0.7 4.5 1.9l12.6 12.6c2.5 2.5 2.5 6.6 0 9.1l-2.7 2.7c-1.2 1.2-2.8 1.8-4.5 1.8q-0.3 0-0.5 0l-2.9 2.9zm-35.4-12.3l-5.2 5.2 0.4 0.4c0.7 0.6 0.7 1.7 0 2.4l-2.7 2.7c-0.3 0.3-0.8 0.5-1.2 0.5-0.4 0-0.8-0.2-1.2-0.5l-12.6-12.7c-0.7-0.6-0.7-1.7 0-2.3l2.7-2.8c0.3-0.3 0.8-0.5 1.2-0.5 0.4 0 0.8 0.2 1.2 0.5l0.4 0.4 21.8-21.8-0.4-0.4c-0.6-0.7-0.6-1.7 0-2.4l2.8-2.7c0.3-0.3 0.7-0.5 1.1-0.5 0.5 0 0.9 0.2 1.2 0.5l12.7 12.6c0.6 0.7 0.6 1.8 0 2.4l-2.7 2.7c-0.4 0.4-0.8 0.5-1.2 0.5-0.5 0-0.9-0.1-1.2-0.5l-0.4-0.4-5.2 5.2-3.4 3.4-4.7 4.7zm32.1 17.9l-2.5 2.6c-0.4 0.4-0.8 0.5-1.2 0.5-0.5 0-0.9-0.1-1.2-0.5l-20.5-20.5 4.9-5 20.5 20.6c0.7 0.6 0.7 1.7 0 2.3z"/>
</svg>