<svg version="1.2" xmlns="http://www.w3.org/2000/svg" viewBox="0 0 68 66" width="68" height="66">
<title>icon</title>
    <style>
        .a{fill:#3172b9}
    </style>
    <path class="a" d="m68 18.3c-0.3 9.9-8.5 17.7-18.5 17.5l-31.1-0.7c-7.2-0.1-13.2 5.6-13.4 12.7-0.2 7.2 5.5 13.1 12.7 13.3 7.2 0.1 13.3-5.6 13.4-12.7l0.2-4.9c0-1.4 1.1-2.5 2.5-2.4 1.4 0 2.5 1.1 2.4 2.5l-0.1 4.9c-0.2 9.9-8.5 17.7-18.5 17.5-9.9-0.2-17.8-8.4-17.6-18.3 0.3-9.9 8.5-17.7 18.5-17.5l31.1 0.7c7.2 0.1 13.2-5.6 13.4-12.7 0.2-7.2-5.5-13.1-12.7-13.3-7.2-0.1-13.3 5.6-13.4 12.7l-0.2 5c0 1.3-1.1 2.4-2.5 2.4-1.4 0-2.5-1.2-2.4-2.5l0.1-5c0.2-9.9 8.5-17.7 18.5-17.5 9.9 0.2 17.8 8.4 17.6 18.3z"/>
</svg>