<svg version="1.2" xmlns="http://www.w3.org/2000/svg" viewBox="0 0 86 64" width="86" height="64"><style>.a{fill:#3172b9}</style><path class="a" d="m79.6 20.3c0 5.4-2.1 10.5-5.9 14.3l-28.7 28.8c-0.4 0.4-1 0.6-1.5 0.6-0.6 0-1.1-0.2-1.5-0.6l-28.8-28.8c-7.9-7.9-7.9-20.8 0-28.7 3.9-3.8 8.9-5.9 14.3-5.9 5.5 0 10.5 2.1 14.4 5.9l1.6 1.6 1.6-1.6c3.8-3.8 8.9-5.9 14.3-5.9 5.4 0 10.5 2.1 14.3 5.9 3.8 3.9 5.9 9 5.9 14.4zm-8.9 11.3l-27.2 27.2-27.3-27.2c-6.2-6.3-6.2-16.4 0-22.6 3.1-3.1 7.1-4.7 11.3-4.7 4.3 0 8.3 1.6 11.3 4.7l3.2 3.1c0.8 0.8 2.1 0.8 3 0l3.1-3.1c3-3.1 7-4.7 11.3-4.7 4.2 0 8.3 1.6 11.3 4.7 6.2 6.2 6.2 16.3 0 22.6zm-58.6-2.5c0 1.2-1 2.2-2.1 2.2h-7.9c-1.1 0-2.1-1-2.1-2.2 0-1.2 1-2.1 2.1-2.1h7.9c1.1 0 2.1 0.9 2.1 2.1zm66.1-0.6c0 0.8-0.4 1.3-1.1 1.3h-21.4c-0.5 0-1.3-0.2-1.6-0.7l-2.1-4.7-6.6 18.8c-0.2 0.6-0.7 0.9-1.3 0.9q0 0 0 0c-0.6 0-1.2-0.3-1.4-0.9l-8-22.4-4.3 9c-0.2 0.5-0.4 0.7-1 0.7h-18.4c-0.8 0-1.8-0.5-1.8-1.3 0-0.8 0.7-1.4 1.5-1.4h17.5l5.3-11.3c0.3-0.5 0.8-0.9 1.4-0.8 0.6 0 1.1 0.4 1.3 0.9l7.9 21.9 6.4-18.3c0.2-0.6 0.7-1 1.3-1 0.6 0 1.1 0.3 1.4 0.9l3.2 7h20.4c0.7 0 1.4 0.6 1.4 1.4zm7.8-0.1c0 1.2-1 2.1-2.1 2.1h-6.4c-1.2 0-2.2-0.9-2.2-2.1 0-1.2 1-2.1 2.2-2.1h6.4c1.1 0 2.1 0.9 2.1 2.1z"/></svg>